<svg width="340" height="102" viewBox="0 0 340 102" fill="none" xmlns="http://www.w3.org/2000/svg">
<path fill-rule="evenodd" clip-rule="evenodd" d="M119.471 0C139.695 0 154.031 15.7435 154.031 35.0713C154.031 54.3993 139.695 70.0156 119.471 70.0156C108.591 70.0156 101.551 65.7916 97.1992 61.0557V95.2314H83.375V1.91992H97.1992V8.31934C101.807 3.71153 109.871 1.67174e-05 119.471 0ZM119.727 12.2881C107.311 12.2882 96.4309 20.6076 96.4307 35.0713C96.4307 49.4072 107.311 57.7274 119.727 57.7275C132.143 57.7275 140.591 47.6153 140.591 35.0713C140.591 22.5275 132.142 12.2881 119.727 12.2881Z" fill="black"/>
<path d="M62.8477 68.0957H49.0234V13.1836H13.8242V68.0957H0V1.91992H62.8477V68.0957Z" fill="black"/>
<path d="M208.014 66.9189C207.982 67.0654 207.951 67.2122 207.923 67.3594C207.894 67.5065 207.868 67.654 207.843 67.8018C207.927 67.3043 208.031 66.8101 208.154 66.3203C208.104 66.5192 208.057 66.7187 208.014 66.9189Z" fill="black"/>
<path d="M200.479 0C210.011 0 218.651 3.54356 225.1 9.33105C224.37 9.53283 223.57 9.75436 222.68 10.0029C219.849 10.793 216.434 11.7903 212.91 13.1768C211.966 13.5481 211.005 13.9508 210.032 14.3906C207.153 13.1211 203.927 12.416 200.479 12.416C187.423 12.4161 177.567 22.5276 177.566 35.0713C177.566 40.7317 179.616 45.9131 183.082 49.876C182.288 54.2422 181.88 58.9921 181.88 64.1514C181.88 64.4672 181.884 64.7819 181.888 65.0957C171.304 59.002 164.255 47.8486 164.255 35.0713C164.255 15.7436 180.383 0.000131506 200.479 0Z" fill="black"/>
<path d="M226.392 101.016C207.832 101.016 193.88 88.8557 193.88 64.1517C193.88 12.1837 240.728 27.2877 240.728 12.1837L254.68 9.6237C254.68 38.4237 211.928 22.5517 207.576 51.2237C210.648 46.7437 218.584 41.4957 229.336 41.4957C247.384 41.4957 259.032 53.7837 259.032 71.3197C259.032 88.7277 245.464 101.016 226.392 101.016ZM226.392 88.7277C238.04 88.7277 245.208 81.0477 245.208 70.9357C245.208 59.6717 239.064 51.8637 226.392 51.8637C215.128 51.8637 207.576 61.3357 207.576 70.9357C207.576 80.5357 214.872 88.7277 226.392 88.7277Z" fill="black"/>
<path d="M303.815 101.016C283.591 101.016 269.255 85.3997 269.255 66.0717C269.255 46.7437 283.591 30.9997 303.815 30.9997C313.415 30.9997 321.479 34.7117 326.087 39.3197V32.9197H339.783V99.0957H325.831L325.959 92.3117C321.607 96.7917 314.567 101.016 303.815 101.016ZM304.839 88.7277C317.127 88.7277 326.855 80.4077 326.855 65.9437C326.855 51.6077 317.127 43.2877 304.839 43.2877C292.423 43.2877 283.079 53.3997 283.079 65.9437C283.079 78.4877 292.423 88.7277 304.839 88.7277Z" fill="black"/>
</svg>
